<svg width="80" height="80" viewBox="0 0 80 80" fill="none" xmlns="http://www.w3.org/2000/svg">
<rect width="80" height="80" rx="8" fill="#254E70"/>
<path d="M20.8853 54V30.4H11.6053V26H35.3653V30.4H26.0853V54H20.8853ZM39.2678 54V26H51.5078C54.5478 26 57.2145 26.5867 59.5078 27.76C61.8011 28.9333 63.5878 30.56 64.8678 32.64C66.1478 34.72 66.7878 37.1733 66.7878 40C66.7878 42.8 66.1478 45.2533 64.8678 47.36C63.5878 49.44 61.8011 51.0667 59.5078 52.24C57.2145 53.4133 54.5478 54 51.5078 54H39.2678ZM44.4678 49.6H51.2678C53.3745 49.6 55.1878 49.2 56.7078 48.4C58.2545 47.6 59.4411 46.48 60.2678 45.04C61.1211 43.6 61.5478 41.92 61.5478 40C61.5478 38.0533 61.1211 36.3733 60.2678 34.96C59.4411 33.52 58.2545 32.4 56.7078 31.6C55.1878 30.8 53.3745 30.4 51.2678 30.4H44.4678V49.6Z" fill="white"/>
</svg>
